#!OML:ASF F:\VICON\USERDATA\INSTALL\rory3\rory3.ASF
:FULLY-SPECIFIED
:DEGREES
2493
root 1.79529 10.2481 -5.58945 -193.33 188.672 -173.976
lowerback 32.1017 -1.53185 -1.26134
upperback 10.4041 -1.94052 6.38545
thorax -4.98501 -1.16372 8.0546
lowerneck -7.91785 -11.8219 -8.45938
upperneck 23.5692 -17.9937 11.1787
head 10.6836 -7.9352 3.05319
rclavicle 5.56597e-014 -3.49861e-014
rhumerus -11.808 34.7002 -81.3365
rradius 93.0726
rwrist 54.3137
rhand -4.19929 -4.09468
rfingers 7.12502
rthumb 21.5626 -32.9143
lclavicle 5.56597e-014 -3.49861e-014
lhumerus -44.7459 -17.758 95.4722
lradius 86.2274
lwrist -15.0601
lhand -56.4304 21.9778
lfingers 7.12502
lthumb -28.7474 49.7848
rfemur -73.469 -2.91478 -8.57902
rtibia 98.715
rfoot -6.46765 9.19618
rtoes -13.2599
lfemur -79.6298 23.1332 -25.8737
ltibia 94.4393
lfoot -4.32763 -20.8296
ltoes -16.5223
2494
root 1.79418 10.2633 -5.56489 -192.895 188.894 -173.843
lowerback 32.2301 -1.46416 -1.3555
upperback 10.2979 -1.87429 6.40989
thorax -5.15692 -1.12663 8.11864
lowerneck -7.99106 -11.5496 -8.37407
upperneck 23.6888 -17.4644 10.5756
head 10.6059 -7.74077 2.91109
rclavicle -7.95139e-015 1.59028e-014
rhumerus -12.5283 34.857 -81.1712
rradius 94.4593
rwrist 53.3254
rhand -4.16401 -5.19954
rfingers 7.12502
rthumb 21.5965 -34.0153
lclavicle -7.95139e-015 1.59028e-014
lhumerus -45.1264 -17.2878 95.5786
lradius 86.6289
lwrist -15.8863
lhand -56.362 22.2139
lfingers 7.12502
lthumb -28.6822 50.0319
rfemur -74.0647 -3.87314 -8.07804
rtibia 99.2732
rfoot -7.33041 9.85866
rtoes -17.5715
lfemur -79.9965 23.255 -25.6426
ltibia 95.2827
lfoot -5.10502 -20.8407
ltoes -16.2182
2495
root 1.79348 10.2789 -5.54131 -192.458 189.01 -173.589
lowerback 32.3524 -1.52633 -1.78091
upperback 10.0587 -2.06094 6.52928
thorax -5.42701 -1.21277 8.55603
lowerneck -7.46913 -11.0045 -9.13438
upperneck 23.7033 -16.5194 10.2958
head 10.4454 -7.42749 3.10646
rclavicle 1.27222e-014 -7.95139e-015
rhumerus -13.443 35.6168 -80.9502
rradius 95.8121
rwrist 52.9186
rhand -4.3189 -5.84494
rfingers 7.12502
rthumb 21.4477 -34.6777
lclavicle 1.27222e-014 -7.95139e-015
lhumerus -45.8113 -16.1426 95.8206
lradius 87.1535
lwrist -16.5016
lhand -56.361 22.2851
lfingers 7.12502
lthumb -28.6812 50.1033
rfemur -74.6462 -5.04943 -7.66586
rtibia 99.9258
rfoot -7.74428 10.4086
rtoes -18.0187
lfemur -80.3416 23.2418 -25.5262
ltibia 96.1395
lfoot -5.42455 -20.7069
ltoes -12.4573
2496
root 1.791 10.2898 -5.5179 -192.024 189.195 -173.591
lowerback 32.5307 -1.51246 -1.61264
upperback 10.0926 -1.99441 6.4829
thorax -5.47251 -1.17773 8.3954
lowerneck -7.85403 -10.6721 -9.02771
upperneck 23.8107 -15.9493 9.92969
head 10.4477 -7.17666 3.02798
rclavicle -4.77083e-015 -4.45278e-014
rhumerus -13.9136 35.2864 -80.6954
rradius 96.9765
rwrist 53.2604
rhand -5.24889 -6.03631
rfingers 7.12502
rthumb 20.5543 -34.9682
lclavicle -4.77083e-015 -4.45278e-014
lhumerus -45.8929 -15.859 95.6379
lradius 87.6036
lwrist -17.4052
lhand -56.2017 22.591
lfingers 7.12502
lthumb -28.529 50.4348
rfemur -75.2547 -6.17809 -6.91455
rtibia 100.736
rfoot -7.49328 10.7658
rtoes -13.8964
lfemur -80.5865 23.3733 -25.1685
ltibia 97.2326
lfoot -6.70512 -20.3684
ltoes -16.5633
2497
root 1.7915 10.3084 -5.49884 -191.741 189.568 -174.115
lowerback 32.9419 -1.52302 -0.89862
upperback 10.2319 -1.78721 6.48595
thorax -5.52036 -1.07397 7.9456
lowerneck -8.3526 -10.3904 -8.71877
upperneck 23.9476 -15.4587 9.47737
head 10.4694 -6.94878 2.86993
rclavicle -3.33958e-014 -2.06736e-014
rhumerus -14.3269 34.5407 -80.5441
rradius 97.9746
rwrist 53.9469
rhand -6.55095 -5.65982
rfingers 7.12502
rthumb 19.3027 -34.7218
lclavicle -3.33958e-014 -2.06736e-014
lhumerus -45.9214 -15.7915 95.3213
lradius 88.0068
lwrist -18.5368
lhand -56.0518 22.7544
lfingers 7.12502
lthumb -28.3857 50.6222
rfemur -75.5749 -6.92428 -5.52408
rtibia 101.582
rfoot -7.36764 10.8101
rtoes -10.9653
lfemur -80.9226 23.7849 -24.3072
ltibia 98.3382
lfoot -7.55702 -20.0084
ltoes -18.2017
2498
root 1.78569 10.3081 -5.46524 -191.321 189.888 -174.316
lowerback 33.265 -1.45196 -0.498258
upperback 10.2843 -1.57426 6.40732
thorax -5.61853 -0.964892 7.57749
lowerneck -8.75334 -10.1154 -8.43589
upperneck 24.0301 -14.9956 9.10227
head 10.4688 -6.73434 2.7439
rclavicle 2.38542e-014 4.29375e-014
rhumerus -14.774 33.7738 -80.4817
rradius 98.9443
rwrist 54.5772
rhand -7.48349 -5.33576
rfingers 7.12502
rthumb 18.4058 -34.485
lclavicle 2.38542e-014 4.29375e-014
lhumerus -46.0056 -15.9418 95.1035
lradius 88.3659
lwrist -19.4963
lhand -56.0224 22.6136
lfingers 7.12502
lthumb -28.3576 50.486
rfemur -76.2521 -7.93855 -4.33816
rtibia 102.688
rfoot -7.85568 10.8136
rtoes -13.0609
lfemur -80.9293 24.2532 -23.5433
ltibia 99.6272
lfoot -8.50131 -19.8649
ltoes -17.2467
2499
root 1.78153 10.3139 -5.43577 -190.771 190.115 -174.254
lowerback 33.4831 -1.61166 -1.22704
upperback 9.85301 -1.95019 6.78266
thorax -6.10865 -1.14224 8.53533
lowerneck -7.59857 -9.19971 -9.88918
upperneck 24.1069 -13.4257 8.66224
head 10.1878 -6.23344 3.10393
rclavicle 3.97569e-014 1.11319e-014
rhumerus -16.0526 35.0646 -80.3269
rradius 100.106
rwrist 54.8287
rhand -8.17142 -4.9377
rfingers 7.12502
rthumb 17.7439 -34.1481
lclavicle 3.97569e-014 1.11319e-014
lhumerus -47.3651 -13.855 95.6568
lradius 89.094
lwrist -20.284
lhand -55.8535 22.9759
lfingers 7.12502
lthumb -28.1962 50.875
rfemur -77.0453 -9.06821 -3.43913
rtibia 103.822
rfoot -8.37954 10.6633
rtoes -15.6932
lfemur -81.2895 24.5286 -23.2928
ltibia 100.712
lfoot -9.08353 -19.6701
ltoes -16.9306
2500
root 1.77777 10.3285 -5.41192 -190.212 190.332 -174.281
lowerback 33.6544 -1.57822 -1.27445
upperback 9.79955 -1.9109 6.8598
thorax -6.23638 -1.12139 8.63977
lowerneck -7.67113 -8.7579 -10.1088
upperneck 24.2422 -12.6375 8.16465
head 10.1451 -5.93802 3.07219
rclavicle 1.27222e-014 -4.29375e-014
rhumerus -16.6645 34.6629 -79.9559
rradius 101.277
rwrist 55.3705
rhand -8.73732 -4.27891
rfingers 7.12502
rthumb 17.1993 -33.5377
lclavicle 1.27222e-014 -4.29375e-014
lhumerus -47.7511 -13.5146 95.7858
lradius 89.6319
lwrist -20.7455
lhand -56.058 22.8836
lfingers 7.12502
lthumb -28.3916 50.7504
rfemur -77.7417 -10.1272 -2.52323
rtibia 104.958
rfoot -8.56756 10.5941
rtoes -15.1309
lfemur -81.7378 24.7676 -23.0209
ltibia 101.704
lfoot -9.40158 -19.5025
ltoes -17.1164
2501
root 1.77234 10.341 -5.38605 -189.608 190.562 -174.15
lowerback 33.7036 -1.39622 -1.07467
upperback 9.92164 -1.63915 6.66529
thorax -6.16331 -0.989495 8.22025
lowerneck -8.31168 -8.59876 -9.60959
upperneck 24.4238 -12.3117 7.62538
head 10.2256 -5.77543 2.82111
rclavicle 2.54444e-014 -6.67916e-014
rhumerus -17.1602 33.3581 -79.6299
rradius 102.617
rwrist 55.8916
rhand -9.03539 -3.83024
rfingers 7.12502
rthumb 16.9124 -33.1139
lclavicle 2.54444e-014 -6.67916e-014
lhumerus -47.653 -14.1455 95.6008
lradius 90.0045
lwrist -21.3993
lhand -56.1994 23.551
lfingers 7.12502
lthumb -28.5267 51.3951
rfemur -78.5776 -11.2542 -1.69307
rtibia 106.114
rfoot -8.7492 10.4756
rtoes -14.2874
lfemur -82.278 25.0429 -22.9581
ltibia 102.646
lfoot -9.59539 -19.3071
ltoes -17.8367
2502
root 1.77211 10.3574 -5.3613 -189.02 190.775 -173.854
lowerback 33.83 -1.22463 -0.929239
upperback 10.0084 -1.40186 6.38442
thorax -6.14792 -0.870068 7.75331
lowerneck -8.79381 -8.45325 -9.23742
upperneck 24.4366 -12.0475 7.32668
head 10.2494 -5.63614 2.67341
rclavicle 5.725e-014 -6.20208e-014
rhumerus -17.8592 32.0722 -79.4726
rradius 104.017
rwrist 56.0935
rhand -9.40878 -4.09803
rfingers 7.12502
rthumb 16.5529 -33.412
lclavicle 5.725e-014 -6.20208e-014
lhumerus -47.6172 -14.7464 95.3678
lradius 90.4377
lwrist -22.0854
lhand -56.4406 24.5041
lfingers 7.12502
lthumb -28.7572 52.3094
rfemur -79.2983 -12.3173 -1.0959
rtibia 107.194
rfoot -8.88324 10.518
rtoes -13.3577
lfemur -82.8152 25.2807 -23.1254
ltibia 103.483
lfoot -9.53694 -19.2745
ltoes -18.0958
2503
root 1.77363 10.3791 -5.34072 -188.382 190.923 -173.574
lowerback 34.0067 -1.06882 -0.762496
upperback 10.0697 -1.17334 6.11523
thorax -6.17461 -0.753138 7.29353
lowerneck -9.13482 -8.26385 -8.81082
upperneck 24.3133 -11.7353 7.03189
head 10.1905 -5.47636 2.53153
rclavicle 9.54166e-015 8.90555e-014
rhumerus -18.6067 30.6467 -79.4137
rradius 105.321
rwrist 56.1359
rhand -9.93549 -4.1866
rfingers 7.12502
rthumb 16.0458 -33.5422
lclavicle 9.54166e-015 8.90555e-014
lhumerus -47.6528 -15.4867 95.2334
lradius 90.94
lwrist -22.2046
lhand -56.7018 24.6744
lfingers 7.12502
lthumb -29.0067 52.437
rfemur -79.9592 -13.3203 -0.558839
rtibia 108.256
rfoot -9.1757 10.559
rtoes -13.4487
lfemur -83.3215 25.3222 -23.2772
ltibia 104.007
lfoot -9.0872 -19.6201
ltoes -16.745
2504
root 1.7735 10.3888 -5.30968 -187.692 191.019 -173.222
lowerback 34.0771 -0.950875 -0.776272
upperback 10.1386 -1.05097 5.88077
thorax -6.13757 -0.690863 7.00454
lowerneck -9.15867 -7.96986 -8.47621
upperneck 23.92 -11.2634 6.73349
head 9.96816 -5.26524 2.43825
rclavicle 6.20208e-014 -8.42847e-014
rhumerus -19.2523 29.5168 -79.3249
rradius 106.55
rwrist 55.6397
rhand -10.5776 -4.19937
rfingers 7.12502
rthumb 15.4274 -33.6037
lclavicle 6.20208e-014 -8.42847e-014
lhumerus -47.6508 -16.0589 95.1111
lradius 91.3267
lwrist -22.3062
lhand -56.7767 23.7866
lfingers 7.12502
lthumb -29.0783 51.5368
rfemur -80.6833 -14.5245 0.0188982
rtibia 109.331
rfoot -9.68419 10.5374
rtoes -14.8344
lfemur -83.6128 25.3607 -23.4766
ltibia 104.571
lfoot -8.73963 -20.1946
ltoes -14.9472
2505
root 1.77032 10.4012 -5.28482 -186.913 191.226 -173.134
lowerback 34.1528 -0.840264 -0.746147
upperback 10.2405 -0.914532 5.7954
thorax -6.06942 -0.627321 6.84712
lowerneck -9.39301 -7.67267 -8.33898
upperneck 23.6888 -10.7506 6.42479
head 9.85748 -5.04547 2.36909
rclavicle -2.38542e-014 -6.36111e-015
rhumerus -19.8207 28.7108 -79.0671
rradius 107.729
rwrist 54.9259
rhand -11.2754 -4.38699
rfingers 7.12502
rthumb 14.7552 -33.8418
lclavicle -2.38542e-014 -6.36111e-015
lhumerus -47.4017 -16.3013 94.8962
lradius 91.5639
lwrist -23.0763
lhand -56.6139 23.4602
lfingers 7.12502
lthumb -28.9227 51.2372
rfemur -81.4623 -15.5739 0.95655
rtibia 110.307
rfoot -10.2868 10.58
rtoes -14.5318
lfemur -84.006 25.4999 -23.3825
ltibia 105.099
lfoot -7.96928 -20.9936
ltoes -12.2394
2506
root 1.76494 10.4104 -5.26117 -186.174 191.492 -173.215
lowerback 34.4852 -0.760918 -0.664328
upperback 10.3032 -0.784953 5.82466
thorax -6.13824 -0.567532 6.79367
lowerneck -9.94308 -7.38557 -8.52661
upperneck 23.8413 -10.1868 6.075
head 9.9606 -4.8235 2.33238
rclavicle -1.59028e-015 -6.36111e-015
rhumerus -20.4416 28.2094 -78.6819
rradius 108.807
rwrist 54.2835
rhand -12.4265 -5.01552
rfingers 7.12502
rthumb 13.646 -34.5482
lclavicle -1.59028e-015 -6.36111e-015
lhumerus -47.2417 -16.4048 94.7418
lradius 91.7934
lwrist -23.7837
lhand -56.599 24.3305
lfingers 7.12502
lthumb -28.9085 52.11
rfemur -82.1869 -16.3818 2.01787
rtibia 111.211
rfoot -11.0436 10.6095
rtoes -13.9512
lfemur -84.3556 25.7924 -23.1661
ltibia 105.577
lfoot -9.487 -22.358
ltoes -10.1069
